HIERARCHY
ROOT Hip
{
  OFFSET 0.000000 0.000000 0.000000
  CHANNELS 6 Xposition Yposition Zposition Zrotation Xrotation Yrotation
  JOINT RHip
  {
    OFFSET -0.068429 -0.216903 0.057318
    CHANNELS 3 Xposition Yposition Zposition
    JOINT RKnee
    {
      OFFSET -0.144519 0.459626 0.029929
      CHANNELS 3 Xposition Yposition Zposition
      JOINT RFoot
      {
        OFFSET -0.055625 0.135083 0.161487
        CHANNELS 3 Xposition Yposition Zposition
        End Site
        {
          OFFSET 0.000000 0.050000 0.000000
        }
      }
    }
  }
  JOINT LHip
  {
    OFFSET 0.068413 0.216854 -0.057229
    CHANNELS 3 Xposition Yposition Zposition
    JOINT LKnee
    {
      OFFSET -0.277391 0.470637 0.121713
      CHANNELS 3 Xposition Yposition Zposition
      JOINT LFoot
      {
        OFFSET -0.462890 -0.480285 0.438247
        CHANNELS 3 Xposition Yposition Zposition
        End Site
        {
          OFFSET 0.000000 0.050000 0.000000
        }
      }
    }
  }
  JOINT Spine
  {
    OFFSET -0.225212 -0.048779 -0.121973
    CHANNELS 3 Xposition Yposition Zposition
    JOINT Thorax
    {
      OFFSET -0.110771 -0.036178 -0.024667
      CHANNELS 3 Xposition Yposition Zposition
      JOINT Nose
      {
        OFFSET 0.390969 -0.335796 0.007355
        CHANNELS 3 Xposition Yposition Zposition
        JOINT Head
        {
          OFFSET 0.012160 0.286546 0.202185
          CHANNELS 3 Xposition Yposition Zposition
          End Site
          {
            OFFSET 0.000000 0.050000 0.000000
          }
        }
      }
      JOINT LShoulder
      {
        OFFSET 0.008803 0.049185 -0.036640
        CHANNELS 3 Xposition Yposition Zposition
        JOINT LElbow
        {
          OFFSET 0.394840 -0.530923 -0.024830
          CHANNELS 3 Xposition Yposition Zposition
          JOINT LWrist
          {
            OFFSET -0.378398 0.464259 -0.036122
            CHANNELS 3 Xposition Yposition Zposition
            End Site
            {
              OFFSET 0.000000 0.050000 0.000000
            }
          }
        }
      }
      JOINT RShoulder
      {
        OFFSET 0.042392 -0.003032 0.056704
        CHANNELS 3 Xposition Yposition Zposition
        JOINT RElbow
        {
          OFFSET 0.227851 0.236565 0.040482
          CHANNELS 3 Xposition Yposition Zposition
          JOINT RWrist
          {
            OFFSET -0.172635 -0.008489 0.020346
            CHANNELS 3 Xposition Yposition Zposition
            End Site
            {
              OFFSET 0.000000 0.050000 0.000000
            }
          }
        }
      }
    }
  }
}
MOTION
Frames: 23
Frame Time: 0.033333
0.000002 0.847338 0.000201 0.000000 0.000000 0.000000 0.065019 0.804709 0.021051 -0.309813 0.691859 0.167728 -0.407921 1.060115 -0.056397 -0.065034 0.889874 -0.020994 -0.198022 0.755178 0.097635 -0.209807 0.528402 0.370312 -0.042553 0.862790 -0.148823 -0.104754 0.860477 -0.097612 0.020226 0.640674 -0.269011 -0.016183 0.803743 -0.291689 -0.150685 0.913971 -0.128829 -0.151272 0.159432 -0.152173 0.337991 0.370946 -0.203897 -0.025541 0.751401 -0.080279 -0.301190 0.418151 -0.081230 -0.200707 0.670059 -0.162088
0.000002 0.847334 0.000195 0.000000 0.000000 0.000000 0.075127 0.754702 0.018014 -0.223346 0.781343 0.136241 -0.472932 1.099138 -0.083406 -0.075140 0.939877 -0.017957 -0.154155 0.841733 0.136316 -0.232367 0.620477 0.402109 -0.046747 0.876926 -0.144521 -0.052661 0.873479 -0.132657 -0.051656 0.643038 -0.283869 -0.029116 0.783389 -0.309226 -0.128983 0.948743 -0.177313 -0.125934 0.184284 -0.203107 0.401751 0.399802 -0.223135 0.053652 0.781235 -0.090798 -0.286371 0.562654 -0.041153 -0.260856 0.683757 -0.096360
0.000001 0.847331 0.000168 0.000000 0.000000 0.000000 0.061383 0.731183 0.019391 -0.202077 0.840837 0.119207 -0.486338 1.066935 -0.101413 -0.061394 0.963391 -0.019337 -0.105286 0.973871 0.138857 -0.272482 0.682166 0.368190 -0.031842 0.891003 -0.151539 0.011584 0.892303 -0.191381 -0.146527 0.713135 -0.311148 -0.062924 0.785842 -0.339384 -0.072649 0.948547 -0.251571 -0.132378 0.276494 -0.287331 0.401996 0.465359 -0.287851 0.123152 0.840141 -0.117881 -0.291520 0.751485 -0.033693 -0.327792 0.689841 -0.064109
0.000001 0.847328 0.000157 0.000000 0.000000 0.000000 0.032674 0.744890 0.018902 -0.207537 0.862840 0.124291 -0.425565 1.027524 -0.144377 -0.032686 0.949680 -0.018855 -0.045850 1.105024 0.120077 -0.303950 0.732789 0.324978 0.004474 0.912425 -0.163771 0.077071 0.923922 -0.231692 -0.205511 0.809855 -0.328321 -0.103038 0.812075 -0.336073 -0.001937 0.932959 -0.300475 -0.143395 0.406110 -0.342312 0.336432 0.557907 -0.345753 0.181306 0.915525 -0.130501 -0.280936 0.907681 -0.034222 -0.370610 0.677890 -0.049215
0.000001 0.847326 0.000161 0.000000 0.000000 0.000000 0.002126 0.785023 0.012814 -0.212027 0.869824 0.136085 -0.304588 1.019946 -0.207370 -0.002139 0.909543 -0.012769 0.013273 1.200486 0.087792 -0.270818 0.804528 0.277835 0.049350 0.939961 -0.175928 0.138181 0.962160 -0.232001 -0.188716 0.880993 -0.322915 -0.113941 0.836127 -0.293550 0.064254 0.916141 -0.301066 -0.135769 0.512902 -0.344790 0.248774 0.658232 -0.373955 0.230772 1.005008 -0.116587 -0.235715 1.002738 -0.003259 -0.381637 0.654531 -0.044414
0.000002 0.847325 0.000142 0.000000 0.000000 0.000000 -0.020762 0.834231 0.003032 -0.212171 0.904268 0.163729 -0.149065 1.048360 -0.249877 0.020749 0.860331 -0.002982 0.063606 1.263545 0.052656 -0.184681 0.912175 0.217681 0.084365 0.962141 -0.185977 0.187596 0.997809 -0.205618 -0.097881 0.890394 -0.303852 -0.082749 0.845357 -0.247344 0.114485 0.894836 -0.267539 -0.101973 0.546763 -0.307210 0.173888 0.730544 -0.364215 0.268866 1.110881 -0.091401 -0.188082 1.036229 0.047842 -0.378020 0.613422 -0.056514
0.000003 0.847325 0.000090 0.000000 0.000000 0.000000 -0.023563 0.873301 -0.000791 -0.191836 0.973881 0.210841 0.029598 1.082530 -0.240352 0.023549 0.821259 0.000852 0.111177 1.308907 0.035341 -0.097657 1.045044 0.160930 0.101571 0.977039 -0.191801 0.219920 1.034317 -0.182579 0.023633 0.838198 -0.293002 -0.041533 0.846251 -0.234756 0.146304 0.881619 -0.226285 -0.047350 0.537403 -0.244818 0.104981 0.755266 -0.316158 0.294399 1.217453 -0.078595 -0.155897 1.014614 0.069560 -0.368141 0.546621 -0.093871
0.000003 0.847323 0.000044 0.000000 0.000000 0.000000 -0.005170 0.885550 0.000425 -0.132803 1.049389 0.255121 0.187734 1.089918 -0.183139 0.005156 0.809010 -0.000351 0.147052 1.330687 0.038609 -0.047675 1.151130 0.142307 0.096648 0.983219 -0.191904 0.238592 1.059784 -0.168198 0.137675 0.753461 -0.292415 -0.004785 0.835161 -0.251150 0.165150 0.873989 -0.189091 0.026725 0.536541 -0.178924 0.046901 0.721272 -0.260615 0.308049 1.278085 -0.087167 -0.145309 0.951332 0.040969 -0.337370 0.483680 -0.149134
0.000004 0.847316 0.000015 0.000000 0.000000 0.000000 0.011679 0.865857 -0.001511 -0.053328 1.119886 0.268284 0.272038 1.056014 -0.084559 -0.011692 0.828704 0.001590 0.144209 1.325131 0.049832 -0.060143 1.185563 0.188271 0.079680 0.964887 -0.186190 0.241868 1.033463 -0.148860 0.215885 0.670588 -0.286168 0.030141 0.796378 -0.267275 0.182049 0.836233 -0.163105 0.124640 0.543637 -0.134131 0.039054 0.632116 -0.222624 0.293607 1.244743 -0.096145 -0.177654 0.880035 0.003168 -0.299594 0.474984 -0.186757
0.000003 0.847310 -0.000002 0.000000 0.000000 0.000000 0.011496 0.838425 -0.009996 0.021814 1.188707 0.232843 0.270541 0.982835 0.054700 -0.011509 0.856138 0.010072 0.098402 1.282030 0.067892 -0.140787 1.137995 0.264757 0.068365 0.922299 -0.175122 0.215833 0.954897 -0.140424 0.234865 0.624586 -0.277030 0.046641 0.750502 -0.271355 0.189688 0.766982 -0.161016 0.217915 0.578035 -0.132468 0.090723 0.537632 -0.219826 0.232573 1.132457 -0.102514 -0.229447 0.851627 -0.017619 -0.259845 0.544869 -0.198904
0.000003 0.847307 0.000007 0.000000 0.000000 0.000000 0.006727 0.831150 -0.016484 0.098796 1.213690 0.170948 0.190014 0.890511 0.196630 -0.006739 0.863416 0.016551 0.047673 1.173771 0.095980 -0.249485 1.027275 0.298526 0.064452 0.880982 -0.163975 0.164739 0.880694 -0.161739 0.186147 0.656255 -0.281261 0.054689 0.738644 -0.278731 0.174599 0.707641 -0.183692 0.232133 0.679073 -0.186531 0.160287 0.492479 -0.250634 0.145321 1.017970 -0.124231 -0.245435 0.881862 -0.032582 -0.199839 0.661253 -0.208430
0.000002 0.847309 0.000034 0.000000 0.000000 0.000000 0.006546 0.845626 -0.014556 0.193377 1.152592 0.132688 0.080359 0.795061 0.273757 -0.006555 0.848942 0.014614 0.033720 0.982873 0.114828 -0.325188 0.905484 0.269981 0.056802 0.847111 -0.155615 0.119844 0.831223 -0.184794 0.112049 0.746712 -0.288771 0.097575 0.761707 -0.295872 0.153095 0.662824 -0.209313 0.161935 0.787913 -0.257691 0.208795 0.496881 -0.256303 0.074545 0.941894 -0.148520 -0.212765 0.921131 -0.064443 -0.125228 0.750985 -0.228984
0.000001 0.847313 0.000050 0.000000 0.000000 0.000000 0.001999 0.871287 -0.007823 0.282846 1.040750 0.120076 -0.001986 0.727023 0.289979 -0.002003 0.823281 0.007877 0.053595 0.768652 0.100755 -0.363976 0.822380 0.219445 0.047104 0.816790 -0.146035 0.091875 0.798367 -0.185876 0.045780 0.847096 -0.287920 0.172394 0.798642 -0.314177 0.139748 0.619609 -0.224322 0.066630 0.845395 -0.281722 0.230285 0.548669 -0.201605 0.032568 0.910637 -0.147836 -0.141455 0.942675 -0.091931 -0.074377 0.809673 -0.238456
0.000002 0.847316 0.000041 0.000000 0.000000 0.000000 -0.009923 0.896223 0.003789 0.308342 0.964425 0.118745 -0.034247 0.725785 0.275491 0.009920 0.798344 -0.003735 0.075693 0.649389 0.064341 -0.381834 0.830645 0.156010 0.040293 0.816530 -0.134748 0.075878 0.805750 -0.160403 -0.010160 0.917200 -0.266745 0.230998 0.835927 -0.297285 0.125342 0.604800 -0.227571 -0.019531 0.867701 -0.264240 0.223899 0.655506 -0.139537 0.018906 0.943463 -0.108619 -0.038861 0.958152 -0.081849 -0.044993 0.859626 -0.232074
0.000002 0.847317 0.000014 0.000000 0.000000 0.000000 -0.025682 0.910722 0.016846 0.264545 0.979110 0.138336 -0.005374 0.832253 0.260657 0.025676 0.783848 -0.016786 0.073754 0.689441 0.045650 -0.363514 0.949124 0.080722 0.040641 0.861128 -0.128585 0.076661 0.866311 -0.118888 -0.045617 0.932447 -0.236921 0.268974 0.867091 -0.240377 0.104475 0.636804 -0.220035 -0.071431 0.891801 -0.243744 0.182639 0.772956 -0.107592 0.042337 1.049602 -0.042229 0.075938 0.983830 -0.026826 -0.019108 0.888522 -0.210235
0.000003 0.847316 -0.000019 0.000000 0.000000 0.000000 -0.048534 0.905348 0.022591 0.203543 1.076726 0.168997 0.085892 1.025208 0.281042 0.048520 0.789226 -0.022524 0.044873 0.835751 0.048940 -0.305280 1.138853 0.014624 0.054888 0.926979 -0.135821 0.099555 0.955188 -0.086409 -0.055535 0.879774 -0.231229 0.286590 0.886317 -0.183691 0.097490 0.698879 -0.205005 -0.045285 0.920748 -0.233814 0.112146 0.834348 -0.098384 0.098840 1.198531 0.013869 0.157834 1.050816 0.047464 -0.008015 0.882932 -0.149668
0.000003 0.847312 -0.000053 0.000000 0.000000 0.000000 -0.074165 0.876375 0.025811 0.165415 1.181188 0.181762 0.203593 1.230495 0.340447 0.074141 0.818203 -0.025740 0.002862 0.997388 0.044181 -0.231796 1.321475 -0.021546 0.073540 0.987208 -0.154951 0.132984 1.043595 -0.075948 -0.044541 0.797451 -0.254053 0.273619 0.918631 -0.165359 0.123373 0.766854 -0.193779 0.048872 0.954662 -0.251114 0.024017 0.810367 -0.107487 0.154007 1.346556 0.031763 0.175453 1.183203 0.088827 -0.027253 0.836815 -0.053671
0.000004 0.847309 -0.000090 0.000000 0.000000 0.000000 -0.091805 0.830127 0.036693 0.152187 1.220598 0.175682 0.289776 1.374311 0.373777 0.091772 0.864455 -0.036622 -0.030975 1.121547 0.026974 -0.163479 1.446580 -0.041740 0.084697 1.023085 -0.174692 0.160997 1.098932 -0.081334 -0.021397 0.725622 -0.286731 0.244288 0.962438 -0.162879 0.174193 0.810192 -0.197582 0.131700 0.996570 -0.297397 -0.063261 0.718641 -0.126765 0.173926 1.437744 0.017358 0.136998 1.355295 0.058781 -0.046122 0.718807 0.025869
0.000004 0.847311 -0.000101 0.000000 0.000000 0.000000 -0.088598 0.790878 0.048406 0.145396 1.173158 0.165948 0.296365 1.435621 0.351388 0.088560 0.903704 -0.048340 -0.046721 1.173032 0.018823 -0.114629 1.498135 -0.048312 0.083672 1.020597 -0.190778 0.160360 1.107291 -0.113211 -0.022648 0.704323 -0.326131 0.190500 1.008208 -0.164029 0.213612 0.826299 -0.230196 0.131121 1.039874 -0.359960 -0.112876 0.656547 -0.168378 0.141209 1.440579 -0.029210 0.063438 1.513323 -0.023724 -0.037874 0.566378 0.043383
0.000004 0.847319 -0.000090 0.000000 0.000000 0.000000 -0.063534 0.783435 0.051560 0.124389 1.048992 0.146064 0.218745 1.398889 0.283203 0.063496 0.911141 -0.051502 -0.048272 1.114344 0.018274 -0.104538 1.453894 -0.047968 0.076295 0.982977 -0.205051 0.129477 1.070335 -0.179669 -0.065357 0.741253 -0.370125 0.092032 1.031616 -0.191795 0.214949 0.832252 -0.287637 0.035341 1.056943 -0.419563 -0.097850 0.664937 -0.236911 0.079056 1.359302 -0.105101 -0.017382 1.579313 -0.103429 -0.013448 0.500919 0.004983
0.000002 0.847325 -0.000086 0.000000 0.000000 0.000000 -0.031816 0.803782 0.048682 0.079608 0.894924 0.117125 0.118458 1.280349 0.218671 0.031784 0.890789 -0.048632 -0.048378 0.962543 0.001533 -0.121594 1.325557 -0.068543 0.063485 0.923797 -0.210765 0.091114 0.982755 -0.239707 -0.108394 0.803533 -0.390586 -0.013685 1.001509 -0.244019 0.181290 0.808021 -0.325793 -0.099366 1.017362 -0.434002 -0.023592 0.670301 -0.270846 0.026231 1.200544 -0.173809 -0.074230 1.515911 -0.151962 0.001228 0.562333 -0.063366
0.000002 0.847325 -0.000080 0.000000 0.000000 0.000000 -0.008987 0.828652 0.046175 -0.000778 0.773020 0.101148 0.067895 1.132007 0.223391 0.008961 0.865917 -0.046133 -0.055908 0.781727 -0.027634 -0.158756 1.167070 -0.095666 0.042192 0.862184 -0.207678 0.059569 0.872712 -0.264953 -0.125383 0.847143 -0.379174 -0.083209 0.929094 -0.297480 0.127269 0.761365 -0.325747 -0.212986 0.925454 -0.403810 0.056614 0.615306 -0.252560 0.002426 1.011988 -0.205135 -0.090117 1.376456 -0.168879 -0.031447 0.676577 -0.122157
0.000001 0.847323 -0.000059 0.000000 0.000000 0.000000 -0.003011 0.843086 0.047806 -0.121960 0.725908 0.106565 0.067494 0.985100 0.264495 0.002987 0.851481 -0.047766 -0.078016 0.600319 -0.058148 -0.233206 1.006908 -0.103637 0.028210 0.817413 -0.201610 0.037638 0.786159 -0.265523 -0.127898 0.833516 -0.345955 -0.119998 0.851897 -0.313404 0.074036 0.730018 -0.307911 -0.287892 0.800477 -0.376692 0.124278 0.512893 -0.235152 0.002953 0.855235 -0.203748 -0.088791 1.229045 -0.162729 -0.111134 0.778126 -0.151607
